<mxfile host="app.diagrams.net" agent="Mozilla/5.0 (Windows NT 10.0; Win64; x64) AppleWebKit/537.36 (KHTML, like Gecko) Chrome/135.0.0.0 Safari/537.36" version="26.2.9">
  <diagram name="Página-1" id="K1vCT3-_wOFoox4Md0bB">
    <mxGraphModel dx="544" dy="477" grid="1" gridSize="10" guides="1" tooltips="1" connect="1" arrows="1" fold="1" page="1" pageScale="1" pageWidth="827" pageHeight="1169" math="0" shadow="0">
      <root>
        <mxCell id="0" />
        <mxCell id="1" parent="0" />
        <mxCell id="S6igIHDjcdohr1a2UY5Q-2" value="COMPRA" style="rounded=0;whiteSpace=wrap;html=1;" vertex="1" parent="1">
          <mxGeometry x="320" y="230" width="120" height="60" as="geometry" />
        </mxCell>
        <mxCell id="S6igIHDjcdohr1a2UY5Q-3" value="PRODUTO" style="rounded=0;whiteSpace=wrap;html=1;" vertex="1" parent="1">
          <mxGeometry x="40" y="90" width="120" height="60" as="geometry" />
        </mxCell>
        <mxCell id="S6igIHDjcdohr1a2UY5Q-4" value="CLIENTE" style="rounded=0;whiteSpace=wrap;html=1;" vertex="1" parent="1">
          <mxGeometry x="40" y="340" width="120" height="60" as="geometry" />
        </mxCell>
        <mxCell id="S6igIHDjcdohr1a2UY5Q-5" value="FORMA PAGAMENTO" style="rounded=0;whiteSpace=wrap;html=1;" vertex="1" parent="1">
          <mxGeometry x="620" y="90" width="120" height="60" as="geometry" />
        </mxCell>
        <mxCell id="S6igIHDjcdohr1a2UY5Q-6" value="PRAZO PAGAMENTO" style="rounded=0;whiteSpace=wrap;html=1;" vertex="1" parent="1">
          <mxGeometry x="610" y="360" width="120" height="60" as="geometry" />
        </mxCell>
        <mxCell id="S6igIHDjcdohr1a2UY5Q-7" value="ESTA" style="rhombus;whiteSpace=wrap;html=1;" vertex="1" parent="1">
          <mxGeometry x="200" y="160" width="80" height="70" as="geometry" />
        </mxCell>
        <mxCell id="S6igIHDjcdohr1a2UY5Q-8" value="FAZ" style="rhombus;whiteSpace=wrap;html=1;" vertex="1" parent="1">
          <mxGeometry x="200" y="270" width="80" height="80" as="geometry" />
        </mxCell>
        <mxCell id="S6igIHDjcdohr1a2UY5Q-9" value="TEM" style="rhombus;whiteSpace=wrap;html=1;" vertex="1" parent="1">
          <mxGeometry x="480" y="150" width="80" height="80" as="geometry" />
        </mxCell>
        <mxCell id="S6igIHDjcdohr1a2UY5Q-10" value="TEM" style="rhombus;whiteSpace=wrap;html=1;" vertex="1" parent="1">
          <mxGeometry x="480" y="270" width="80" height="80" as="geometry" />
        </mxCell>
        <mxCell id="S6igIHDjcdohr1a2UY5Q-11" value="" style="endArrow=none;html=1;rounded=0;entryX=0;entryY=0;entryDx=0;entryDy=0;exitX=1;exitY=1;exitDx=0;exitDy=0;" edge="1" parent="1" source="S6igIHDjcdohr1a2UY5Q-10" target="S6igIHDjcdohr1a2UY5Q-6">
          <mxGeometry width="50" height="50" relative="1" as="geometry">
            <mxPoint x="370" y="300" as="sourcePoint" />
            <mxPoint x="420" y="250" as="targetPoint" />
            <Array as="points" />
          </mxGeometry>
        </mxCell>
        <mxCell id="S6igIHDjcdohr1a2UY5Q-12" value="" style="endArrow=none;html=1;rounded=0;exitX=0;exitY=0;exitDx=0;exitDy=0;entryX=1;entryY=0.5;entryDx=0;entryDy=0;" edge="1" parent="1" source="S6igIHDjcdohr1a2UY5Q-10" target="S6igIHDjcdohr1a2UY5Q-2">
          <mxGeometry width="50" height="50" relative="1" as="geometry">
            <mxPoint x="370" y="300" as="sourcePoint" />
            <mxPoint x="460" y="270" as="targetPoint" />
          </mxGeometry>
        </mxCell>
        <mxCell id="S6igIHDjcdohr1a2UY5Q-13" value="" style="endArrow=none;html=1;rounded=0;entryX=0;entryY=0.5;entryDx=0;entryDy=0;" edge="1" parent="1" target="S6igIHDjcdohr1a2UY5Q-5">
          <mxGeometry width="50" height="50" relative="1" as="geometry">
            <mxPoint x="540" y="170" as="sourcePoint" />
            <mxPoint x="590" y="120" as="targetPoint" />
          </mxGeometry>
        </mxCell>
        <mxCell id="S6igIHDjcdohr1a2UY5Q-14" value="" style="endArrow=none;html=1;rounded=0;" edge="1" parent="1">
          <mxGeometry width="50" height="50" relative="1" as="geometry">
            <mxPoint x="440" y="250" as="sourcePoint" />
            <mxPoint x="490" y="200" as="targetPoint" />
          </mxGeometry>
        </mxCell>
        <mxCell id="S6igIHDjcdohr1a2UY5Q-15" value="" style="endArrow=none;html=1;rounded=0;" edge="1" parent="1">
          <mxGeometry width="50" height="50" relative="1" as="geometry">
            <mxPoint x="270" y="300" as="sourcePoint" />
            <mxPoint x="320" y="250" as="targetPoint" />
          </mxGeometry>
        </mxCell>
        <mxCell id="S6igIHDjcdohr1a2UY5Q-16" value="" style="endArrow=none;html=1;rounded=0;entryX=0;entryY=1;entryDx=0;entryDy=0;" edge="1" parent="1" target="S6igIHDjcdohr1a2UY5Q-8">
          <mxGeometry width="50" height="50" relative="1" as="geometry">
            <mxPoint x="160" y="370" as="sourcePoint" />
            <mxPoint x="210" y="320" as="targetPoint" />
          </mxGeometry>
        </mxCell>
        <mxCell id="S6igIHDjcdohr1a2UY5Q-17" value="" style="endArrow=none;html=1;rounded=0;exitX=1;exitY=0.75;exitDx=0;exitDy=0;" edge="1" parent="1" source="S6igIHDjcdohr1a2UY5Q-3" target="S6igIHDjcdohr1a2UY5Q-7">
          <mxGeometry width="50" height="50" relative="1" as="geometry">
            <mxPoint x="160" y="180" as="sourcePoint" />
            <mxPoint x="210" y="130" as="targetPoint" />
          </mxGeometry>
        </mxCell>
        <mxCell id="S6igIHDjcdohr1a2UY5Q-18" value="" style="endArrow=none;html=1;rounded=0;exitX=0.675;exitY=0.8;exitDx=0;exitDy=0;exitPerimeter=0;entryX=0;entryY=0.25;entryDx=0;entryDy=0;" edge="1" parent="1" source="S6igIHDjcdohr1a2UY5Q-7" target="S6igIHDjcdohr1a2UY5Q-2">
          <mxGeometry width="50" height="50" relative="1" as="geometry">
            <mxPoint x="250" y="280" as="sourcePoint" />
            <mxPoint x="300" y="230" as="targetPoint" />
          </mxGeometry>
        </mxCell>
        <mxCell id="S6igIHDjcdohr1a2UY5Q-19" value="" style="ellipse;whiteSpace=wrap;html=1;aspect=fixed;" vertex="1" parent="1">
          <mxGeometry x="80" y="160" width="20" height="20" as="geometry" />
        </mxCell>
        <mxCell id="S6igIHDjcdohr1a2UY5Q-20" value="" style="ellipse;whiteSpace=wrap;html=1;aspect=fixed;" vertex="1" parent="1">
          <mxGeometry x="80" y="200" width="20" height="20" as="geometry" />
        </mxCell>
        <mxCell id="S6igIHDjcdohr1a2UY5Q-21" value="" style="ellipse;whiteSpace=wrap;html=1;aspect=fixed;" vertex="1" parent="1">
          <mxGeometry x="80" y="240" width="20" height="20" as="geometry" />
        </mxCell>
        <mxCell id="S6igIHDjcdohr1a2UY5Q-25" value="" style="endArrow=none;html=1;rounded=0;exitX=0.5;exitY=0;exitDx=0;exitDy=0;" edge="1" parent="1" source="S6igIHDjcdohr1a2UY5Q-20">
          <mxGeometry width="50" height="50" relative="1" as="geometry">
            <mxPoint x="50" y="220" as="sourcePoint" />
            <mxPoint x="90" y="190" as="targetPoint" />
            <Array as="points">
              <mxPoint x="90" y="180" />
            </Array>
          </mxGeometry>
        </mxCell>
        <mxCell id="S6igIHDjcdohr1a2UY5Q-27" value="" style="endArrow=none;html=1;rounded=0;exitX=0.5;exitY=0;exitDx=0;exitDy=0;entryX=0.5;entryY=1;entryDx=0;entryDy=0;" edge="1" parent="1" source="S6igIHDjcdohr1a2UY5Q-21" target="S6igIHDjcdohr1a2UY5Q-20">
          <mxGeometry width="50" height="50" relative="1" as="geometry">
            <mxPoint x="60" y="260" as="sourcePoint" />
            <mxPoint x="110" y="210" as="targetPoint" />
          </mxGeometry>
        </mxCell>
        <mxCell id="S6igIHDjcdohr1a2UY5Q-28" value="" style="endArrow=none;html=1;rounded=0;entryX=0.417;entryY=1;entryDx=0;entryDy=0;entryPerimeter=0;" edge="1" parent="1" target="S6igIHDjcdohr1a2UY5Q-3">
          <mxGeometry width="50" height="50" relative="1" as="geometry">
            <mxPoint x="90" y="160" as="sourcePoint" />
            <mxPoint x="110" y="140" as="targetPoint" />
          </mxGeometry>
        </mxCell>
        <mxCell id="S6igIHDjcdohr1a2UY5Q-33" value="Id" style="text;html=1;align=center;verticalAlign=middle;whiteSpace=wrap;rounded=0;" vertex="1" parent="1">
          <mxGeometry x="100" y="155" width="60" height="30" as="geometry" />
        </mxCell>
        <mxCell id="S6igIHDjcdohr1a2UY5Q-34" value="Stock" style="text;html=1;align=center;verticalAlign=middle;whiteSpace=wrap;rounded=0;" vertex="1" parent="1">
          <mxGeometry x="100" y="195" width="60" height="30" as="geometry" />
        </mxCell>
        <mxCell id="S6igIHDjcdohr1a2UY5Q-35" value="Preço" style="text;html=1;align=center;verticalAlign=middle;whiteSpace=wrap;rounded=0;" vertex="1" parent="1">
          <mxGeometry x="100" y="240" width="60" height="30" as="geometry" />
        </mxCell>
      </root>
    </mxGraphModel>
  </diagram>
</mxfile>
